<?xml version="1.0" encoding="UTF-8"?>
<svg width="183px" height="159px" viewBox="0 0 183 159" version="1.1" xmlns="http://www.w3.org/2000/svg" xmlns:xlink="http://www.w3.org/1999/xlink">
    <!-- Generator: Sketch 52.3 (67297) - http://www.bohemiancoding.com/sketch -->
    <title>SoundOn_off_unseen</title>
    <desc>Created with Sketch.</desc>
    <g id="SoundOn_off_unseen" stroke="none" stroke-width="1" fill="none" fill-rule="evenodd">
        <g id="Group" transform="translate(0.000000, 17.000000)" fill="#FEFEFE">
            <polygon id="Fill-16" points="65.1193 26.7594 0.0126 26.7594 0.0126 101.9396 65.1193 101.9396 110.2936 128.0218 110.2936 64.3485 110.2936 0.6772"></polygon>
            <path d="M174.2498,90.3219 C173.1846,90.3219 172.1195,89.9162 171.3081,89.1027 L127.6859,45.4805 C126.059,43.8557 126.059,41.2198 127.6859,39.5971 C129.3086,37.9702 131.9466,37.9702 133.5693,39.5971 L177.1915,83.2193 C178.8163,84.8441 178.8163,87.4779 177.1915,89.1027 C176.3802,89.9162 175.315,90.3219 174.2498,90.3219" id="Fill-17"></path>
            <path d="M130.627,90.3219 C129.5618,90.3219 128.4966,89.9162 127.6852,89.1027 C126.0604,87.4779 126.0604,84.8441 127.6852,83.2193 L171.3075,39.5971 C172.9302,37.9702 175.5682,37.9702 177.1909,39.5971 C178.8178,41.2198 178.8178,43.8557 177.1909,45.4805 L133.5687,89.1027 C132.7573,89.9162 131.6921,90.3219 130.627,90.3219" id="Fill-18"></path>
        </g>
    </g>
</svg>