<?xml version="1.0" encoding="UTF-8"?>
<svg width="183px" height="159px" viewBox="0 0 183 159" version="1.1" xmlns="http://www.w3.org/2000/svg" xmlns:xlink="http://www.w3.org/1999/xlink">
    <!-- Generator: Sketch 52.3 (67297) - http://www.bohemiancoding.com/sketch -->
    <title>SoundOn_off_unseen</title>
    <desc>Created with Sketch.</desc>
    <g id="SoundOn_off_unseen" stroke="none" stroke-width="1" fill="none" fill-rule="evenodd">
        <g id="Group-2" fill="#FEFEFE">
            <polygon id="Fill-13" points="65.1193 43.1761 0.0126 43.1761 0.0126 118.3562 65.1193 118.3562 110.2936 144.4384 110.2936 80.7651 110.2936 17.0939"></polygon>
            <path d="M139.74,158.7045 C138.4522,158.7045 137.1832,158.1095 136.3697,156.9881 C135.0195,155.1282 135.4336,152.5256 137.2934,151.1775 C160.5671,134.2824 174.4622,107.0497 174.4622,78.3316 C174.4622,50.8243 162.1191,25.1915 140.5972,8.0051 C138.8018,6.5717 138.5084,3.9546 139.9418,2.1571 C141.3752,0.3637 143.9924,0.0704 145.7899,1.5017 C169.2986,20.2754 182.7839,48.28 182.7839,78.3316 C182.7839,109.7085 167.6052,139.4564 142.1804,157.9098 C141.4418,158.4465 140.5868,158.7045 139.74,158.7045" id="Fill-14"></path>
            <path d="M128.1392,124.083 C126.9804,124.083 125.8278,123.6024 125.004,122.66 C123.4915,120.9311 123.6684,118.3015 125.3993,116.789 C136.5025,107.0839 142.8706,93.066 142.8706,78.3325 C142.8706,64.6932 137.5593,51.8716 127.9166,42.2268 C126.2897,40.6041 126.2897,37.9682 127.9166,36.3434 C129.5393,34.7185 132.1752,34.7185 133.8,36.3434 C145.0155,47.5589 151.1923,62.4713 151.1923,78.3325 C151.1923,95.4668 143.786,111.769 130.8749,123.0552 C130.0865,123.7439 129.1107,124.083 128.1392,124.083" id="Fill-15"></path>
        </g>
    </g>
</svg>